<?xml version="1.0" standalone="no"?>
<!DOCTYPE svg PUBLIC "-//W3C//DTD SVG 20010904//EN"
 "http://www.w3.org/TR/2001/REC-SVG-20010904/DTD/svg10.dtd">
<svg version="1.0" xmlns="http://www.w3.org/2000/svg"
 width="500.000000pt" height="500.000000pt" viewBox="0 0 500.000000 500.000000"
 preserveAspectRatio="xMidYMid meet">
<metadata>
Created by potrace 1.16, written by Peter Selinger 2001-2019
</metadata>
<g transform="translate(0.000000,500.000000) scale(0.100000,-0.100000)"
fill="#000000" stroke="none">
<path d="M0 2500 l0 -2500 2500 0 2500 0 0 2500 0 2500 -2500 0 -2500 0 0
-2500z m948 538 l-3 -343 -47 -3 -48 -3 0 345 0 346 50 0 50 0 -2 -342z m1222
-3 l0 -345 -45 0 -45 0 0 345 0 345 45 0 45 0 0 -345z m681 2 l137 -342 -45
-3 c-25 -2 -51 -1 -58 2 -7 2 -48 93 -91 202 l-79 197 -3 -201 -2 -202 -50 0
-50 0 0 345 0 345 53 0 52 0 136 -343z m1299 -2 l0 -345 -50 0 -50 0 0 212 c0
116 -3 208 -7 204 -4 -4 -44 -98 -88 -209 l-81 -202 -52 -3 c-29 -2 -52 0 -52
4 0 4 62 160 137 346 l137 338 53 0 53 0 0 -345z m-2532 -437 c18 -18 15 -75
-5 -86 -15 -9 -15 -12 0 -51 20 -49 20 -51 6 -51 -5 0 -19 20 -30 45 -16 36
-25 45 -44 45 -23 0 -25 -4 -25 -45 0 -33 -4 -45 -15 -45 -12 0 -15 18 -15
100 l0 100 58 0 c32 0 63 -5 70 -12z m1365 -72 l30 -80 30 82 c23 63 34 82 48
82 17 0 19 -9 19 -100 0 -81 -3 -100 -15 -100 -11 0 -15 17 -17 73 l-3 72 -25
-73 c-17 -49 -29 -72 -39 -70 -8 2 -26 37 -40 78 l-26 75 -3 -77 c-2 -60 -6
-78 -17 -78 -12 0 -15 19 -15 101 0 97 1 100 21 97 17 -2 29 -21 52 -82z
m-2035 -563 l2 -343 -50 0 -50 0 0 346 0 345 48 -3 47 -3 3 -342z m1222 2 l0
-345 -45 0 -45 0 0 345 0 345 45 0 45 0 0 -345z m540 0 l0 -345 -50 0 -50 0 0
345 0 345 50 0 50 0 0 -345z m542 70 c59 -148 111 -278 116 -288 5 -13 39 59
124 270 l116 288 56 3 57 3 -14 -33 c-8 -18 -69 -174 -137 -345 l-124 -313
-71 0 -71 0 -133 333 c-73 182 -136 338 -138 345 -4 10 8 12 53 10 l58 -3 108
-270z m898 -70 l0 -345 -50 0 -50 0 0 345 0 345 50 0 50 0 0 -345z"/>
</g>
</svg>
